<svg xmlns="http://www.w3.org/2000/svg" viewBox="0 0 1065 381" fill="currentColor" shape-rendering="geometricPrecision">
  <g id="mca-mark" fill-rule="evenodd">
    <path data-letter="M" d="M327 197L297 252L228 105L102 381L0 381L181 9L275 9L279 13L345 151Z" />
    <path data-letter="C" d="M366 381L267 381L267 376C300 300 340 150 420 70C460 30 510 0 562 0C630 0 690 30 726 58L726 62L672 120C650 102 610 80 562 81C530 82 500 110 483 137C460 175 420 280 366 381Z" />
    <path data-letter="A" d="M625 310L641 303L669 272L789 13L793 9L884 9L1065 381L966 381L932 309L771 309L805 237L900 237L840 105L834 109L738 323L698 366L672 381L489 381L460 366L420 329L420 322L462 231L492 278L532 309L562 318L602 318Z" />
  </g>
</svg>
